<?xml version="1.0" encoding="UTF-8" standalone="no"?>
<svg width="687px" height="274px" viewBox="0 0 687 274" version="1.1" xmlns="http://www.w3.org/2000/svg" xmlns:xlink="http://www.w3.org/1999/xlink" xmlns:sketch="http://www.bohemiancoding.com/sketch/ns">
    <!-- Generator: Sketch 3.4.4 (17249) - http://www.bohemiancoding.com/sketch -->
    <title>store_logo</title>
    <desc>Created with Sketch.</desc>
    <defs></defs>
    <g id="Page-1" stroke="none" stroke-width="1" fill="none" fill-rule="evenodd" sketch:type="MSPage">
        <g id="store_logo" sketch:type="MSLayerGroup">
            <g id="Rectangle-1" sketch:type="MSShapeGroup">
                <rect id="Rectangle-path" fill="#EEAF95" x="0" y="0" width="687" height="274" rx="15"></rect>
                <path d="M111.948561,92.014194 L93.6308409,178.5 L118.098081,178.5 L128.957872,118.96741 L130.004599,118.96741 C130.004599,120.40666 130.004599,121.97675 130.266281,124.331885 L137.593369,178.5 L163.892381,178.5 L184.172713,124.331885 C184.957759,122.107591 185.350281,120.799182 185.611963,118.96741 L186.789531,118.96741 L183.387668,178.5 L208.770794,178.5 L210.471726,92.014194 L178.677397,92.014194 L156.041929,153.901919 C155.126043,156.649577 154.864362,158.088826 154.60268,159.004712 L153.425112,159.004712 C153.425112,157.696304 153.425112,156.126214 153.16343,153.901919 L145.574661,92.014194 L111.948561,92.014194 L111.948561,92.014194 Z M220.415631,145.397263 C217.929654,166.724323 230.097854,180.07009 250.509028,180.07009 C271.574405,180.07009 285.574377,166.855164 288.191194,145.920627 C290.808011,124.462726 278.639812,111.116959 258.228638,111.116959 C237.294101,111.116959 222.901607,124.462726 220.415631,145.397263 L220.415631,145.397263 L220.415631,145.397263 Z M256.92023,126.163657 C263.200591,126.163657 266.20993,133.359905 264.63984,145.789786 C263.06975,158.61219 258.228638,164.369188 251.817436,164.369188 C245.537075,164.369188 242.396895,157.303781 243.966985,145.528104 C245.667916,132.051496 250.509028,126.163657 256.92023,126.163657 L256.92023,126.163657 L256.92023,126.163657 Z M349.424715,88.7431726 L347.723784,106.799211 L347.723784,112.556208 L346.938739,113.210413 C340.658378,111.378641 336.733152,111.116959 333.854653,111.116959 C316.452819,111.116959 300.621076,124.593567 297.219213,146.313149 C293.948192,167.116845 302.714529,180.07009 316.191137,180.07009 C330.32195,180.07009 339.48081,171.172912 346.022853,147.88324 L347.723784,148.275762 L345.106967,157.17294 L340.265855,180.07009 L359.891984,178.761682 L371.144297,86.518878 L349.424715,88.7431726 L349.424715,88.7431726 Z M343.144354,124.855249 C339.088287,152.331829 332.938767,164.369188 325.74252,164.369188 C320.247204,164.369188 319.723841,156.780418 320.116363,150.892579 C321.16309,136.761767 329.013541,123.939363 338.564924,123.939363 C340.135014,123.939363 341.574264,124.201045 343.144354,124.855249 L343.144354,124.855249 L343.144354,124.855249 Z M432.116136,114.25714 C423.218958,111.509482 417.723642,110.986118 412.490008,110.986118 C394.957333,110.986118 378.994749,124.593567 375.723727,146.182308 C372.452706,167.247686 381.349884,180.200931 394.695651,180.200931 C408.957305,180.200931 418.116165,171.434594 424.658207,147.752399 L426.228298,148.144921 L423.611481,157.0421 L418.770369,180.07009 L438.265656,178.630841 L446.246949,114.25714 L432.116136,114.25714 L432.116136,114.25714 Z M421.518027,124.593567 C417.592801,152.200988 411.443281,164.238347 404.247034,164.238347 C398.751718,164.238347 398.228354,156.780418 398.620877,150.761738 C399.667604,136.500085 407.518055,123.677681 417.069438,123.677681 C418.247005,123.677681 420.078777,123.939363 421.518027,124.593567 L421.518027,124.593567 L421.518027,124.593567 Z M463.648783,88.7431726 L454.751604,160.443962 C453.966559,166.986005 453.835718,174.313093 457.237581,180.200931 L478.695481,177.584114 C477.256232,171.827116 477.648754,165.285074 478.433799,158.873872 L487.461818,86.518878 L463.648783,88.7431726 L463.648783,88.7431726 Z M501.46179,88.7431726 L492.564612,160.443962 C491.779567,166.986005 491.648726,174.313093 495.050588,180.200931 L516.508489,177.584114 C515.069239,171.827116 515.461762,165.285074 516.246807,158.873872 L525.274826,86.518878 L501.46179,88.7431726 L501.46179,88.7431726 Z M528.93837,112.556208 L542.022456,174.705615 C535.742094,180.855135 529.592574,184.911202 521.3496,188.443905 L533.779482,204.668171 C574.078465,185.303725 592.134504,140.29447 595.405525,112.556208 L571.854171,112.556208 C571.330807,126.687021 567.405582,145.920627 559.424289,162.014052 L557.98504,161.62153 C558.377563,158.350508 558.639244,154.948646 558.246722,151.285102 L554.190655,112.556208 L528.93837,112.556208 L528.93837,112.556208 Z" id="Modally" fill="#FFFFFF"></path>
            </g>
        </g>
    </g>
</svg>