<?xml version="1.0" encoding="UTF-8" standalone="no"?>
<svg width="37px" height="30px" viewBox="0 0 37 30" version="1.1" xmlns="http://www.w3.org/2000/svg" xmlns:xlink="http://www.w3.org/1999/xlink">
    <defs></defs>
    <g id="Page-1" stroke="none" stroke-width="1" fill="none" fill-rule="evenodd">
        <g id="cart_icon" fill="#000000">
            <path d="M31.9,20.5 L12.9,20.5 L5,2.3 L0,2.3 L0,0 L6.5,0 L14.4,18.3 L31.9,18.3 L31.9,20.5 Z" id="Shape"></path>
            <path d="M36.5,4.6 L31.9,16 L16,16 L11.4,4.6 L36.5,4.6 Z" id="Shape"></path>
            <path d="M20.5,26.2 C20.5,28.1 19,29.6 17.1,29.6 C15.2,29.6 13.7,28.1 13.7,26.2 C13.7,24.3 15.2,22.8 17.1,22.8 C19,22.8 20.5,24.4 20.5,26.2 L20.5,26.2 Z" id="Shape"></path>
            <path d="M31.9,26.2 C31.9,28.1 30.4,29.6 28.5,29.6 C26.6,29.6 25.1,28.1 25.1,26.2 C25.1,24.3 26.6,22.8 28.5,22.8 C30.4,22.8 31.9,24.4 31.9,26.2 L31.9,26.2 Z" id="Shape"></path>
        </g>
    </g>
</svg>