<?xml version="1.0" encoding="UTF-8" standalone="no"?>
<svg version="1.1"
  xmlns="http://www.w3.org/2000/svg" xmlns:xlink="http://www.w3.org/1999/xlink" xmlns:a="http://ns.adobe.com/AdobeSVGViewerExtensions/3.0/"
  x="0px" y="0px" width="20px" height="20px" viewBox="0 0 36.5 29.7" style="enable-background:new 0 0 36.5 29.7;"
  xml:space="preserve">
<defs>
</defs>
<g>
  <g>
    <g>
      <polygon class="icon" points="31.9,20.5 12.9,20.5 5,2.3 0,2.3 0,0 6.5,0 14.4,18.3 31.9,18.3"/>
    </g>
    <polygon class="icon" points="36.5,4.6 31.9,16 16,16 11.4,4.6"/>
    <path class="icon" d="M20.5,26.2c0,1.9-1.5,3.4-3.4,3.4c-1.9,0-3.4-1.5-3.4-3.4s1.5-3.4,3.4-3.4C19,22.8,20.5,24.4,20.5,26.2z"/>
    <path class="icon" d="M31.9,26.2c0,1.9-1.5,3.4-3.4,3.4c-1.9,0-3.4-1.5-3.4-3.4s1.5-3.4,3.4-3.4C30.4,22.8,31.9,24.4,31.9,26.2z"/>
  </g>
</g>
</svg>
