<?xml version="1.0" encoding="UTF-8" standalone="no"?>
<svg width="38px" height="36px" viewBox="0 0 38 36" version="1.1" xmlns="http://www.w3.org/2000/svg" xmlns:xlink="http://www.w3.org/1999/xlink" xmlns:sketch="http://www.bohemiancoding.com/sketch/ns">
    <!-- Generator: Sketch 3.4.3 (16044) - http://www.bohemiancoding.com/sketch -->
    <title>exchange_icon</title>
    <desc>Created with Sketch.</desc>
    <defs></defs>
    <g id="Page-1" stroke="none" stroke-width="1" fill="none" fill-rule="evenodd" sketch:type="MSPage">
        <g id="exchange_icon" sketch:type="MSArtboardGroup" transform="translate(-31.000000, -32.000000)" fill="#000000">
            <g sketch:type="MSLayerGroup" transform="translate(31.000000, 32.000000)" id="Shape">
                <path d="M7.2,28.8 C7,28.8 6.7,28.7 6.5,28.6 C6.3,28.5 0,25.3 0,17 C0,14 1.1,11.5 3.2,9.5 C9.1,4.2 21,5.3 21.5,5.3 C22.3,5.4 22.9,6.1 22.8,6.9 C22.7,7.7 22,8.3 21.2,8.2 C21.1,8.2 10.1,7.2 5.2,11.6 C3.7,13.1 3,14.8 3,17 C3,23.5 7.8,26 7.9,26 C8.6,26.4 8.9,27.3 8.6,28 C8.3,28.5 7.7,28.8 7.2,28.8 L7.2,28.8 Z" sketch:type="MSShapeGroup"></path>
                <path d="M13.6,13.1 C13.4,13.1 13.1,13 12.9,12.9 C12.4,12.6 12.1,12.1 12.1,11.6 L12.1,2.4 C12.1,1.9 12.4,1.4 12.8,1.1 C13.3,0.8 13.8,0.8 14.3,1.1 L22.1,5.5 C22.6,5.8 22.8,6.2 22.9,6.8 C22.9,7.3 22.6,7.8 22.2,8.1 L14.4,12.9 C14.1,13.1 13.8,13.1 13.6,13.1 L13.6,13.1 Z" sketch:type="MSShapeGroup"></path>
                <path d="M19.1,31.4 C17.4,31.4 16.2,31.3 16,31.3 C15.2,31.2 14.6,30.5 14.7,29.7 C14.8,28.9 15.5,28.3 16.3,28.4 C16.4,28.4 27.4,29.4 32.3,25 C33.8,23.6 34.5,21.9 34.5,19.8 C34.5,13.3 29.7,10.8 29.6,10.8 C28.9,10.4 28.6,9.5 28.9,8.8 C29.3,8.1 30.2,7.8 30.9,8.1 C31.2,8.2 37.4,11.5 37.4,19.8 C37.4,22.8 36.3,25.3 34.2,27.3 C30.2,30.8 23.1,31.4 19.1,31.4 L19.1,31.4 Z" sketch:type="MSShapeGroup"></path>
                <path d="M23.9,35.6 C23.6,35.6 23.4,35.5 23.2,35.4 L15.4,31 C14.9,30.7 14.7,30.3 14.6,29.7 C14.6,29.2 14.9,28.7 15.3,28.4 L23.1,23.6 C23.6,23.3 24.1,23.3 24.6,23.6 C25.1,23.9 25.4,24.4 25.4,24.9 L25.4,34.1 C25.4,34.6 25.1,35.1 24.7,35.4 C24.5,35.5 24.2,35.6 23.9,35.6 L23.9,35.6 Z" sketch:type="MSShapeGroup"></path>
            </g>
        </g>
    </g>
</svg>