<svg version="1.1"
   xmlns="http://www.w3.org/2000/svg" xmlns:xlink="http://www.w3.org/1999/xlink" xmlns:a="http://ns.adobe.com/AdobeSVGViewerExtensions/3.0/"
   x="0px" y="0px" width="33px" height="33px" viewBox="0 0 65.5 65.5" style="enable-background:new 0 0 65.5 65.5;"
   xml:space="preserve">
<style type="text/css">
  .st0{fill-rule:evenodd;clip-rule:evenodd;fill:#FFFFFF;}
</style>
<defs>
</defs>
<path class="st0" d="M32.8,0C14.7,0,0,14.7,0,32.8c0,18.1,14.7,32.8,32.8,32.8c18.1,0,32.8-14.7,32.8-32.8C65.5,14.7,50.9,0,32.8,0z
   M42,19.8c-0.4,0-0.7,0-1,0c-0.9,0-1.8,0-2.7,0c-1.4,0-2.2,0.7-2.4,2c-0.1,1.3,0,2.6,0,3.9c2,0,4,0,6.1,0c-0.1,1-0.1,1.9-0.2,2.8
  c-0.1,1.2-0.3,2.5-0.4,3.7c0,0.4-0.2,0.6-0.6,0.6c-1.5,0-3.1,0-4.7,0c0,0.3,0,0.6,0,0.8c0,6,0,12,0,17.9c0,0.9,0,0.9-0.8,0.9
  c-2.1,0-4.1,0-6.2,0c-1.4,0-1.4,0-1.4-1.5c0-5.8,0-11.5,0-17.3c0-0.9,0-0.9-0.9-0.9c-0.9,0-1.7,0-2.6,0c-0.4,0-0.6-0.2-0.6-0.6
  c0-1.9,0-3.9,0-5.8c0-0.4,0.2-0.5,0.6-0.5c0.9,0,1.7,0,2.6,0c1,0,1,0,1-1c0-1.5,0-3,0.1-4.5c0.3-4.4,3.1-7.3,7.5-7.4
  c2.1,0,4.1,0,6.2,0c0.2,0,0.3,0,0.6,0C42,15.4,42,17.5,42,19.8z"/>
</svg>
