<?xml version="1.0" encoding="UTF-8" standalone="no"?>
<svg width="29px" height="38px" viewBox="0 0 29 38" version="1.1" xmlns="http://www.w3.org/2000/svg" xmlns:xlink="http://www.w3.org/1999/xlink" xmlns:sketch="http://www.bohemiancoding.com/sketch/ns">
    <!-- Generator: Sketch 3.4.3 (16044) - http://www.bohemiancoding.com/sketch -->
    <title>gift_icon</title>
    <desc>Created with Sketch.</desc>
    <defs></defs>
    <g id="Page-1" stroke="none" stroke-width="1" fill="none" fill-rule="evenodd" sketch:type="MSPage">
        <g id="gift_icon" sketch:type="MSArtboardGroup" transform="translate(-36.000000, -25.000000)" fill="#000000">
            <g sketch:type="MSLayerGroup" transform="translate(36.000000, 25.000000)">
                <path d="M26.7,37.7 L1.5,37.7 C0.7,37.7 0,37 0,36.1 L0,13.5 C0,12.6 0.7,12 1.5,12 L26.7,12 C27.5,12 28.2,12.7 28.2,13.5 L28.2,36.1 C28.2,37 27.5,37.7 26.7,37.7 L26.7,37.7 Z M3.1,34.6 L25.2,34.6 L25.2,15 L3.1,15 L3.1,34.6 L3.1,34.6 Z" id="Shape" sketch:type="MSShapeGroup"></path>
                <rect id="Rectangle-path" sketch:type="MSShapeGroup" x="12.5" y="13.5" width="3.1" height="22.6"></rect>
                <rect id="Rectangle-path" sketch:type="MSShapeGroup" x="2.7" y="23.3" width="22.6" height="3.1"></rect>
                <path d="M12.3,15 C11.7,15 11.1,14.6 10.9,14 C10.6,13.2 11,12.3 11.8,12 C12.5,11.7 13.2,11.4 14,11 C13.9,11 13.8,11 13.8,10.9 C13,10.5 12.7,9.6 13,8.9 C15.1,4.3 17.4,1.7 19.9,1.1 C21.3,0.7 22.6,1.2 23.2,1.6 C23.3,1.7 23.4,1.8 23.5,1.9 C24.4,3.2 24.6,4.6 24.2,6 C22.8,10.8 14,14.4 13,14.8 C12.7,15 12.5,15 12.3,15 L12.3,15 Z M20.9,4.1 C20.8,4.1 20.6,4.1 20.4,4.2 C19.7,4.4 17.9,5.4 15.7,10.2 C18.2,8.8 20.6,7 21.1,5.4 C21.2,5 21.2,4.6 21,4.2 C21,4.1 21,4.1 20.9,4.1 L20.9,4.1 Z" id="Shape" sketch:type="MSShapeGroup"></path>
                <path d="M16.2,15 C16,15 15.8,15 15.6,14.9 C14.6,14.5 5.8,10.9 4.4,6.1 C4,4.7 4.3,3.3 5.1,2 C5.2,1.9 5.3,1.8 5.4,1.7 C6,1.2 7.2,0.8 8.7,1.2 C11.2,1.8 13.5,4.5 15.6,9 C16,9.8 15.6,10.7 14.8,11 C14.7,11 14.6,11.1 14.6,11.1 C15.4,11.5 16.1,11.8 16.8,12.1 C17.6,12.4 18,13.3 17.7,14.1 C17.4,14.6 16.8,15 16.2,15 L16.2,15 Z M7.5,4.1 C7.3,4.5 7.2,4.8 7.4,5.3 C7.9,6.9 10.3,8.7 12.8,10.1 C10.6,5.3 8.8,4.3 8.1,4.1 C7.8,4 7.6,4 7.5,4.1 L7.5,4.1 Z" id="Shape" sketch:type="MSShapeGroup"></path>
            </g>
        </g>
    </g>
</svg>