<?xml version="1.0" encoding="UTF-8" standalone="no"?>
<svg width="41px" height="41px" viewBox="0 0 41 41" version="1.1" xmlns="http://www.w3.org/2000/svg" xmlns:xlink="http://www.w3.org/1999/xlink" xmlns:sketch="http://www.bohemiancoding.com/sketch/ns">
    <!-- Generator: Sketch 3.3.3 (12072) - http://www.bohemiancoding.com/sketch -->
    <title>grid_icon</title>
    <desc>Created with Sketch.</desc>
    <defs></defs>
    <g id="Page-1" stroke="none" stroke-width="1" fill="none" fill-rule="evenodd" sketch:type="MSPage">
        <g id="grid_icon" sketch:type="MSArtboardGroup" transform="translate(-30.000000, -30.000000)" fill="#000000">
            <path d="M45.4557989,48.45 L32.9942011,48.45 C31.3410752,48.45 30,47.1089248 30,45.4557989 L30,32.9942011 C30,31.3410752 31.3410752,30 32.9942011,30 L45.4557989,30 C47.1089248,30 48.45,31.3410752 48.45,32.9942011 L48.45,45.4557989 C48.45,47.1089248 47.1089248,48.45 45.4557989,48.45 Z M68.0057989,48.45 L55.5442011,48.45 C53.8910752,48.45 52.55,47.1089248 52.55,45.4557989 L52.55,32.9942011 C52.55,31.3410752 53.8910752,30 55.5442011,30 L68.0057989,30 C69.6589248,30 71,31.3410752 71,32.9942011 L71,45.4557989 C71,47.1089248 69.6589248,48.45 68.0057989,48.45 Z M45.4557989,71 L32.9942011,71 C31.3410752,71 30,69.6589248 30,68.0057989 L30,55.5442011 C30,53.8910752 31.3410752,52.55 32.9942011,52.55 L45.4557989,52.55 C47.1089248,52.55 48.45,53.8910752 48.45,55.5442011 L48.45,68.0057989 C48.45,69.6589248 47.1089248,71 45.4557989,71 Z M68.0057989,71 L55.5442011,71 C53.8910752,71 52.55,69.6589248 52.55,68.0057989 L52.55,55.5442011 C52.55,53.8910752 53.8910752,52.55 55.5442011,52.55 L68.0057989,52.55 C69.6589248,52.55 71,53.8910752 71,55.5442011 L71,68.0057989 C71,69.6589248 69.6589248,71 68.0057989,71 Z" sketch:type="MSShapeGroup"></path>
        </g>
    </g>
</svg>