<?xml version="1.0" encoding="UTF-8" standalone="no"?>
<svg width="39px" height="32px" viewBox="0 0 39 32" version="1.1" xmlns="http://www.w3.org/2000/svg" xmlns:xlink="http://www.w3.org/1999/xlink" xmlns:sketch="http://www.bohemiancoding.com/sketch/ns">
    <!-- Generator: Sketch 3.4.4 (17249) - http://www.bohemiancoding.com/sketch -->
    <title>hamburger_icon</title>
    <desc>Created with Sketch.</desc>
    <defs></defs>
    <g id="Page-1" stroke="none" stroke-width="1" fill="none" fill-rule="evenodd" sketch:type="MSPage">
        <g id="hamburger_icon" sketch:type="MSArtboardGroup" transform="translate(-31.000000, -34.000000)" fill="#000000">
            <g sketch:type="MSLayerGroup" transform="translate(31.000000, 34.000000)" id="Shape">
                <path d="M35.3,12.8 L3.1,12.8 C1.4,12.8 0,14.2 0,16 C0,17.8 1.4,19.2 3.1,19.2 L35.4,19.2 C37.1,19.2 38.5,17.8 38.5,16 C38.5,14.2 37,12.8 35.3,12.8 L35.3,12.8 Z" sketch:type="MSShapeGroup"></path>
                <path d="M35.3,0 L3.1,0 C1.4,0 0,1.4 0,3.2 C0,5 1.4,6.4 3.1,6.4 L35.4,6.4 C37.1,6.4 38.5,5 38.5,3.2 C38.5,1.4 37,0 35.3,0 L35.3,0 Z" sketch:type="MSShapeGroup"></path>
                <path d="M35.3,25.6 L3.1,25.6 C1.4,25.6 0,27 0,28.8 C0,30.6 1.4,32 3.1,32 L35.4,32 C37.1,32 38.5,30.6 38.5,28.8 C38.4,27 37,25.6 35.3,25.6 L35.3,25.6 Z" sketch:type="MSShapeGroup"></path>
            </g>
        </g>
    </g>
</svg>