<svg version="1.1"
   xmlns="http://www.w3.org/2000/svg" xmlns:xlink="http://www.w3.org/1999/xlink" xmlns:a="http://ns.adobe.com/AdobeSVGViewerExtensions/3.0/"
   x="0px" y="0px" width="33px" height="33px" viewBox="0 0 66.5 66.5" style="enable-background:new 0 0 66.5 66.5;"
   xml:space="preserve">
<style type="text/css">
  .st0{fill-rule:evenodd;clip-rule:evenodd;fill:#FFFFFF;}
</style>
<defs>
</defs>
<g>
  <path class="st0" d="M46,18.3c-0.5,0-1,0-1.5,0c0,0,0,0,0,0c-0.5,0-1,0-1.5,0c-1.2,0.1-2,0.8-2.2,1.9c-0.1,0.8-0.1,1.6,0,2.4
    c0.2,1.3,0.9,2.1,2.3,2.2c1,0.1,2,0.1,3.1,0c1.4-0.1,2.2-1.1,2.2-2.4c0-0.6,0-1.2,0-1.8C48.3,19.3,47.3,18.4,46,18.3z"/>
  <path class="st0" d="M33.3,0C14.9,0,0,14.9,0,33.3c0,18.4,14.9,33.3,33.3,33.3s33.3-14.9,33.3-33.3C66.5,14.9,51.6,0,33.3,0z
     M50.2,33.1c0,4.5,0,8.9,0,13.4c0,2.5-1.3,3.8-3.8,3.8c-4.4,0-8.7,0-13.1,0c-4.4,0-8.8,0-13.2,0c-1.8,0-3.1-0.9-3.6-2.5
    c-0.1-0.3-0.1-0.7-0.1-1.1c0-6,0-12,0-18c0-0.9,0.1-1,1-1c2.6,0,5.2,0,7.9,0c0.8,0,0.8,0,0.5,0.8c-1.2,3.1-0.3,6.5,2.1,8.8
    c2.4,2.2,5.9,2.7,8.9,1.3c2.9-1.4,4.7-4.5,4.6-7.7c0-0.9-0.2-1.7-0.6-2.5c-0.2-0.4-0.1-0.6,0.4-0.6c2.8,0,5.6,0,8.4,0
    c0.5,0,0.7,0.3,0.7,0.7C50.1,30,50.2,31.5,50.2,33.1z M26.9,31.3c0-3.6,2.8-6.4,6.4-6.4c3.5,0,6.4,2.9,6.4,6.4
    c0,3.5-2.9,6.4-6.4,6.4C29.7,37.7,26.9,34.9,26.9,31.3z M49.4,26.5c-3,0-6.1,0-9.1,0c-0.6,0-0.9-0.3-1.2-0.7
    c-2.4-2.5-5.9-3.2-9-1.9c-1.1,0.5-2.1,1.2-2.9,2.2c-0.3,0.4-0.6,0.5-1.1,0.5c-3,0-5.9,0-8.9,0c-0.6,0-0.8-0.2-0.8-0.8
    c0-1.9,0-3.9,0-5.8c0-2.2,1.4-3.6,3.6-3.6c3.9,0,7.8,0,11.8,0c0.5,0,1,0,1.5,0c4.4,0,8.7,0,13.1,0c1.1,0,2.1,0.3,2.9,1.2
    c0.5,0.6,0.8,1.3,0.8,2c0,2,0,4.1,0,6.1C50.2,26.3,50,26.5,49.4,26.5z"/>
</g>
</svg>
