<?xml version="1.0" encoding="UTF-8" standalone="no"?>
<svg width="27px" height="27px" viewBox="0 0 27 27" version="1.1" xmlns="http://www.w3.org/2000/svg" xmlns:xlink="http://www.w3.org/1999/xlink" xmlns:sketch="http://www.bohemiancoding.com/sketch/ns">
    <!-- Generator: Sketch 3.4.3 (16044) - http://www.bohemiancoding.com/sketch -->
    <title>instagram_icon</title>
    <desc>Created with Sketch.</desc>
    <defs></defs>
    <g id="Page-1" stroke="none" stroke-width="1" fill="none" fill-rule="evenodd" sketch:type="MSPage">
        <g id="instagram_icon" sketch:type="MSArtboardGroup" transform="translate(-37.000000, -37.000000)" fill="#000000">
            <path d="M58.7819262,37 L42.2180738,37 C39.3415452,37 37,39.3399577 37,42.2180738 L37,58.7819262 C37,61.6600423 39.3415452,64 42.2180738,64 L58.7819262,64 C61.6584548,64 64,61.6600423 64,58.7819262 L64,42.2180738 C64,39.3399577 61.6584548,37 58.7819262,37 L58.7819262,37 Z M60.2789276,40.1130644 L60.8758231,40.1098895 L60.8758231,44.6866181 L56.3133819,44.7009055 L56.2975071,40.1241769 L60.2789276,40.1130644 L60.2789276,40.1130644 Z M46.647166,47.7282455 C47.5107596,46.5312794 48.9140992,45.7470602 50.5,45.7470602 C52.0859008,45.7470602 53.4892404,46.5312794 54.352834,47.7282455 C54.9163923,48.5092897 55.2529398,49.4649577 55.2529398,50.5 C55.2529398,53.1193556 53.1209431,55.2513523 50.5,55.2513523 C47.8806444,55.2513523 45.7486477,53.1193556 45.7486477,50.5 C45.7486477,49.4649577 46.0851952,48.5092897 46.647166,47.7282455 L46.647166,47.7282455 Z M61.369532,58.7819262 C61.369532,60.2090781 60.2090781,61.369532 58.7819262,61.369532 L42.2180738,61.369532 C40.7909219,61.369532 39.630468,60.2090781 39.630468,58.7819262 L39.630468,47.7282455 L43.6626881,47.7282455 C43.3134407,48.5854892 43.1181797,49.5205198 43.1181797,50.5 C43.1181797,54.5703198 46.4296802,57.8834078 50.5,57.8834078 C54.5719073,57.8834078 57.8834078,54.5703198 57.8834078,50.5 C57.8834078,49.5205198 57.6849718,48.5854892 57.3388993,47.7282455 L61.369532,47.7282455 L61.369532,58.7819262 L61.369532,58.7819262 Z" sketch:type="MSShapeGroup"></path>
        </g>
    </g>
</svg>