<svg version="1.1"
   xmlns="http://www.w3.org/2000/svg" xmlns:xlink="http://www.w3.org/1999/xlink" xmlns:a="http://ns.adobe.com/AdobeSVGViewerExtensions/3.0/"
   x="0px" y="0px" width="33px" height="33px" viewBox="0 0 67 67" style="enable-background:new 0 0 67 67;" xml:space="preserve">
<style type="text/css">
  .st0{fill-rule:evenodd;clip-rule:evenodd;fill:#FFFFFF;}
</style>
<defs>
</defs>
<path class="st0" d="M33.5,0C15,0,0,15,0,33.5C0,52,15,67,33.5,67S67,52,67,33.5C67,15,52,0,33.5,0z M52.3,40.7
  c-4.3,11.2-16.1,14.9-24.6,12c2.1-2.9,2.5-6.4,3.5-9.8c1,1.4,2.3,2.1,3.8,2.3c2.9,0.4,5.4-0.4,7.5-2.4c2.4-2.1,3.6-5,4.1-8.1
  c0.4-2.2,0.5-4.5-0.3-6.7c-1.4-3.8-4-6.3-7.8-7.4c-5.3-1.5-10.3-0.7-14.5,3c-3.7,3.3-5,7.6-3.5,12.5c0.5,1.7,1.6,3.1,3.3,3.9
  c0.8,0.4,1.1,0.2,1.3-0.6c0.1-0.2,0.1-0.4,0.2-0.6c0.3-0.8,0.2-1.5-0.4-2.3C23.5,35,23.6,33,24,31c1.1-4.7,5.1-7.7,10-7.5
  c1.7,0.1,3.3,0.4,4.8,1.3c1.9,1.2,2.9,2.9,3.2,5.1c0.3,3-0.1,6-1.6,8.7c-0.8,1.5-1.9,2.8-3.7,3.2c-2.8,0.7-4.9-1.5-4.2-4.1
  c0.6-1.9,1.1-3.9,1.6-5.8c0.1-0.4,0.1-0.8,0.1-1.1c0-1.1-0.4-2-1.4-2.6c-1.1-0.5-2.1-0.4-3.1,0.3c-1.5,1.1-2,2.6-2,4.3
  c0,0.9,0.2,1.9,0.4,2.8c0.1,0.5,0.1,1,0,1.5c-0.9,3.6-1.7,7.2-2.5,10.9c-0.3,1.2-0.2,2.5-0.3,3.8c-7-2.6-14.2-11.8-11.4-23.2
  c2.7-11,14-17.9,25.6-14.3C50.6,17.7,56.5,29.7,52.3,40.7z"/>
</svg>
