<?xml version="1.0" encoding="UTF-8" standalone="no"?>
<svg version="1.1"
  xmlns="http://www.w3.org/2000/svg" xmlns:xlink="http://www.w3.org/1999/xlink" xmlns:a="http://ns.adobe.com/AdobeSVGViewerExtensions/3.0/"
  x="0px" y="0px" width="15px" height="15px" viewBox="0 0 31.7 31.7" style="enable-background:new 0 0 31.7 31.7;"
  xml:space="preserve">
<defs>
</defs>
<g>
  <path class="icon" d="M23.8,11.9C23.8,5.3,18.5,0,11.9,0S0,5.3,0,11.9s5.3,11.9,11.9,11.9S23.8,18.5,23.8,11.9z M11.9,20.8
    c-4.9,0-8.9-4-8.9-8.9S7,3,11.9,3s8.9,4,8.9,8.9S16.8,20.8,11.9,20.8z"/>
  <path class="icon" d="M30.9,26.7l-7.3-7.3c-1.1,1.7-2.5,3.1-4.2,4.2l7.3,7.3c1.2,1.2,3,1.2,4.2,0C32,29.7,32,27.8,30.9,26.7z"/>
</g>
</svg>
