<?xml version="1.0" encoding="UTF-8" standalone="no"?>
<svg width="40px" height="44px" viewBox="0 0 40 44" version="1.1" xmlns="http://www.w3.org/2000/svg" xmlns:xlink="http://www.w3.org/1999/xlink" xmlns:sketch="http://www.bohemiancoding.com/sketch/ns">
    <!-- Generator: Sketch 3.4.3 (16044) - http://www.bohemiancoding.com/sketch -->
    <title>shipping_icon</title>
    <desc>Created with Sketch.</desc>
    <defs></defs>
    <g id="Page-1" stroke="none" stroke-width="1" fill="none" fill-rule="evenodd" sketch:type="MSPage">
        <g id="shipping_icon" sketch:type="MSArtboardGroup" transform="translate(-30.000000, -28.000000)" fill="#000000">
            <g sketch:type="MSLayerGroup" transform="translate(30.000000, 28.000000)" id="Group">
                <g sketch:type="MSShapeGroup">
                    <g transform="translate(0.000000, 15.000000)" id="Shape">
                        <path d="M28.6,21.6 L0,21.6 L0,0.6 L28.6,0.6 L28.6,21.6 L28.6,21.6 Z M3,18.6 L25.5,18.6 L25.5,3.6 L3,3.6 L3,18.6 L3,18.6 Z"></path>
                        <path d="M37.9,21.6 L25.5,21.6 L25.5,6.8 L26.4,6.4 C26.6,6.3 32.5,3.6 36.8,7.9 C41.5,12.6 38.4,20.3 38.3,20.7 L37.9,21.6 L37.9,21.6 Z M28.6,18.6 L35.8,18.6 C36.3,16.7 37.2,12.6 34.7,10.1 C32.7,8.1 30,8.5 28.6,8.9 L28.6,18.6 L28.6,18.6 Z"></path>
                        <path d="M28.7,28.4 C25.8,28.4 23.4,26 23.4,23.1 L23.4,18.6 L34,18.6 L34,23.1 C34,26 31.6,28.4 28.7,28.4 L28.7,28.4 Z M26.4,21.6 L26.4,23.1 C26.4,24.3 27.4,25.3 28.6,25.3 C29.8,25.3 30.8,24.3 30.8,23.1 L30.8,21.6 L26.4,21.6 L26.4,21.6 Z"></path>
                        <path d="M9.6,28.4 C6.7,28.4 4.3,26 4.3,23.1 L4.3,18.5 L14.9,18.5 L14.9,23.1 C14.9,26 12.5,28.4 9.6,28.4 L9.6,28.4 Z M7.3,21.6 L7.3,23.1 C7.3,24.3 8.3,25.3 9.5,25.3 C10.7,25.3 11.7,24.3 11.7,23.1 L11.7,21.6 L7.3,21.6 L7.3,21.6 Z"></path>
                    </g>
                    <path d="M14.3,8.9 C13.5,8.9 12.8,8.2 12.8,7.4 L12.8,1.5 C12.8,0.7 13.5,0 14.3,0 C15.1,0 15.8,0.7 15.8,1.5 L15.8,7.4 C15.8,8.3 15.1,8.9 14.3,8.9 L14.3,8.9 Z" id="Shape"></path>
                    <path d="M23,11.2 C22.7,11.2 22.4,11.1 22.1,10.9 C21.4,10.4 21.3,9.5 21.8,8.8 L25.2,4 C25.7,3.3 26.6,3.2 27.3,3.7 C28,4.2 28.1,5.1 27.6,5.8 L24.2,10.6 C23.9,11 23.5,11.2 23,11.2 L23,11.2 Z" id="Shape"></path>
                    <path d="M5.4,11.3 C4.9,11.3 4.5,11.1 4.2,10.7 L0.7,5.9 C0.2,5.3 0.3,4.3 1,3.8 C1.7,3.3 2.6,3.5 3.1,4.1 L6.6,8.9 C7.1,9.6 7,10.5 6.3,11 C6,11.2 5.7,11.3 5.4,11.3 L5.4,11.3 Z" id="Shape"></path>
                </g>
            </g>
        </g>
    </g>
</svg>